<svg width="46" height="47" viewBox="0 0 46 47" fill="none" xmlns="http://www.w3.org/2000/svg">
<path d="M28.7082 1.92617L24.2085 0.720459L20.4165 14.8724L16.993 2.09593L12.4932 3.30165L16.192 17.1057L6.97905 7.89275L3.68499 11.1868L13.7905 21.2924L1.20571 17.9203L0 22.42L13.7504 26.1044C13.593 25.4254 13.5097 24.7179 13.5097 23.9909C13.5097 18.8453 17.6811 14.6739 22.8267 14.6739C27.9724 14.6739 32.1438 18.8453 32.1438 23.9909C32.1438 24.7132 32.0615 25.4164 31.906 26.0914L44.4026 29.4398L45.6082 24.9401L31.8032 21.241L44.3888 17.8687L43.183 13.3689L29.3785 17.0678L38.5914 7.85493L35.2973 4.56087L25.3321 14.5262L28.7082 1.92617Z" fill="#F97316"/>
<path d="M31.8937 26.1438C31.508 27.7748 30.6935 29.2401 29.5759 30.414L38.6291 39.4673L41.9232 36.1733L31.8937 26.1438Z" fill="#F97316"/>
<path d="M29.4843 30.5087C28.3532 31.6639 26.9239 32.5259 25.321 32.9702L28.6153 45.2646L33.1151 44.0588L29.4843 30.5087Z" fill="#F97316"/>
<path d="M25.1532 33.0152C24.4095 33.2064 23.6301 33.308 22.8268 33.308C21.9662 33.308 21.1328 33.1913 20.3417 32.9729L17.0444 45.2785L21.5442 46.4842L25.1532 33.0152Z" fill="#F97316"/>
<path d="M20.1826 32.9275C18.6042 32.4611 17.2003 31.5881 16.0923 30.4296L7.01685 39.5051L10.3109 42.7992L20.1826 32.9275Z" fill="#F97316"/>
<path d="M16.0166 30.3493C14.9276 29.1835 14.1344 27.7378 13.7569 26.132L1.21948 29.4914L2.42518 33.9911L16.0166 30.3493Z" fill="#F97316"/>
</svg>
