<svg width="118" height="54" viewBox="0 0 118 54" fill="none" xmlns="http://www.w3.org/2000/svg">
<path d="M28.7082 5.92617L24.2085 4.72046L20.4165 18.8724L16.993 6.09593L12.4932 7.30165L16.192 21.1057L6.97905 11.8928L3.68499 15.1868L13.7905 25.2924L1.20571 21.9203L0 26.42L13.7504 30.1044C13.593 29.4254 13.5097 28.7179 13.5097 27.9909C13.5097 22.8453 17.6811 18.6739 22.8267 18.6739C27.9724 18.6739 32.1438 22.8453 32.1438 27.9909C32.1438 28.7132 32.0615 29.4164 31.906 30.0914L44.4026 33.4398L45.6082 28.9401L31.8032 25.241L44.3888 21.8687L43.183 17.3689L29.3785 21.0678L38.5914 11.8549L35.2973 8.56087L25.3321 18.5262L28.7082 5.92617Z" fill="#F97316"/>
<path d="M31.8937 30.1438C31.508 31.7748 30.6935 33.2401 29.5759 34.414L38.6291 43.4673L41.9232 40.1733L31.8937 30.1438Z" fill="#F97316"/>
<path d="M29.4843 34.5087C28.3532 35.6639 26.9239 36.5259 25.321 36.9702L28.6153 49.2646L33.1151 48.0588L29.4843 34.5087Z" fill="#F97316"/>
<path d="M25.1532 37.0152C24.4095 37.2064 23.6301 37.308 22.8268 37.308C21.9662 37.308 21.1328 37.1913 20.3417 36.9729L17.0444 49.2785L21.5442 50.4842L25.1532 37.0152Z" fill="#F97316"/>
<path d="M20.1826 36.9275C18.6042 36.4611 17.2003 35.5881 16.0923 34.4296L7.01685 43.5051L10.3109 46.7992L20.1826 36.9275Z" fill="#F97316"/>
<path d="M16.0166 34.3493C14.9276 33.1835 14.1344 31.7378 13.7569 30.132L1.21948 33.4914L2.42518 37.9911L16.0166 34.3493Z" fill="#F97316"/>
<path d="M57.9671 30V7.36776H67.0288C68.6938 7.36776 70.0825 7.61457 71.195 8.10817C72.3074 8.60178 73.1436 9.28694 73.7035 10.1636C74.2634 11.033 74.5434 12.0349 74.5434 13.1695C74.5434 14.0536 74.3666 14.8308 74.013 15.5012C73.6593 16.1643 73.1731 16.7095 72.5542 17.1368C71.9428 17.5567 71.2429 17.8551 70.4546 18.0319V18.2529C71.3165 18.2897 72.1233 18.5329 72.8747 18.9823C73.6335 19.4317 74.2487 20.0616 74.7202 20.872C75.1917 21.675 75.4275 22.6327 75.4275 23.7452C75.4275 24.9461 75.1291 26.018 74.5324 26.961C73.943 27.8966 73.07 28.6371 71.9133 29.1822C70.7566 29.7274 69.3311 30 67.6366 30H57.9671ZM62.7521 26.088H66.6531C67.9865 26.088 68.959 25.8338 69.5705 25.3255C70.182 24.8098 70.4877 24.1246 70.4877 23.27C70.4877 22.6438 70.3367 22.0912 70.0346 21.6124C69.7326 21.1335 69.3016 20.7578 68.7417 20.4852C68.1891 20.2126 67.5298 20.0763 66.7636 20.0763H62.7521V26.088ZM62.7521 16.8384H66.2994C66.9551 16.8384 67.5371 16.7242 68.0455 16.4958C68.5612 16.2601 68.9664 15.9285 69.2611 15.5012C69.5631 15.0739 69.7142 14.5619 69.7142 13.9651C69.7142 13.1474 69.4232 12.488 68.8411 11.987C68.2665 11.4861 67.4487 11.2356 66.3878 11.2356H62.7521V16.8384ZM83.1603 7.36776V30H78.4527V7.36776H83.1603ZM91.7718 30.3205C90.6888 30.3205 89.7237 30.1326 88.8764 29.7569C88.0292 29.3738 87.3588 28.8102 86.8652 28.0661C86.3789 27.3146 86.1358 26.379 86.1358 25.2592C86.1358 24.3162 86.3089 23.5242 86.6552 22.8832C87.0014 22.2423 87.473 21.7266 88.0697 21.3361C88.6665 20.9456 89.3442 20.6509 90.1031 20.452C90.8693 20.2531 91.6723 20.1131 92.5122 20.0321C93.4994 19.9289 94.295 19.8332 94.8992 19.7448C95.5033 19.649 95.9416 19.509 96.2142 19.3248C96.4868 19.1407 96.6231 18.8681 96.6231 18.5071V18.4408C96.6231 17.7409 96.4021 17.1994 95.96 16.8163C95.5254 16.4332 94.9065 16.2416 94.1035 16.2416C93.2563 16.2416 92.5822 16.4295 92.0812 16.8052C91.5802 17.1736 91.2487 17.6377 91.0866 18.1976L86.7325 17.844C86.9536 16.8126 87.3882 15.9212 88.0365 15.1697C88.6849 14.4109 89.5211 13.8289 90.5451 13.4237C91.5765 13.0111 92.77 12.8048 94.1256 12.8048C95.0686 12.8048 95.9711 12.9153 96.8331 13.1363C97.7024 13.3573 98.4723 13.6999 99.1427 14.1641C99.8205 14.6282 100.355 15.225 100.745 15.9543C101.136 16.6763 101.331 17.542 101.331 18.5513V30H96.8662V27.6462H96.7336C96.461 28.1766 96.0963 28.6444 95.6396 29.0496C95.1828 29.4475 94.6339 29.7606 93.993 29.9889C93.352 30.21 92.6116 30.3205 91.7718 30.3205ZM93.12 27.0715C93.8125 27.0715 94.424 26.9352 94.9544 26.6626C95.4849 26.3827 95.9011 26.0069 96.2032 25.5354C96.5052 25.0639 96.6562 24.5298 96.6562 23.9331V22.1318C96.5089 22.2275 96.3063 22.3159 96.0485 22.397C95.798 22.4707 95.5143 22.5406 95.1975 22.6069C94.8807 22.6659 94.5639 22.7211 94.2472 22.7727C93.9304 22.8169 93.643 22.8574 93.3852 22.8943C92.8326 22.9753 92.3501 23.1042 91.9375 23.2811C91.5249 23.4579 91.2045 23.6973 90.9761 23.9994C90.7477 24.2941 90.6335 24.6624 90.6335 25.1045C90.6335 25.7454 90.8656 26.2353 91.3297 26.5742C91.8012 26.9057 92.398 27.0715 93.12 27.0715ZM115.559 18.8386V22.5738H105.237V18.8386H115.559Z" fill="white"/>
<path d="M67.9245 39.0785C67.7876 38.6489 67.6035 38.2641 67.3721 37.9242C67.1455 37.5796 66.8741 37.2868 66.5577 37.0461C66.2414 36.8006 65.8803 36.6141 65.4742 36.4866C65.0729 36.3591 64.6315 36.2954 64.15 36.2954C63.3332 36.2954 62.5967 36.5055 61.9405 36.9257C61.2842 37.3459 60.7649 37.962 60.3825 38.774C60.0048 39.5813 59.8159 40.5704 59.8159 41.7412C59.8159 42.9168 60.0072 43.9106 60.3896 44.7226C60.772 45.5347 61.296 46.1508 61.9617 46.571C62.6274 46.9912 63.3851 47.2012 64.2349 47.2012C65.0234 47.2012 65.7103 47.0407 66.2957 46.7197C66.8859 46.3987 67.3414 45.9454 67.6625 45.36C67.9882 44.7699 68.1511 44.0758 68.1511 43.278L68.7177 43.3842H64.5678V41.5784H70.2686V43.2284C70.2686 44.4465 70.0089 45.504 69.4896 46.401C68.975 47.2933 68.2621 47.9826 67.3509 48.4689C66.4444 48.9551 65.4058 49.1983 64.2349 49.1983C62.9225 49.1983 61.7705 48.8961 60.7791 48.2918C59.7923 47.6875 59.0228 46.8306 58.4704 45.7212C57.918 44.607 57.6419 43.2851 57.6419 41.7554C57.6419 40.5987 57.8024 39.5601 58.1234 38.6395C58.4445 37.7188 58.8953 36.9375 59.476 36.2954C60.0614 35.6486 60.7484 35.1553 61.5368 34.8153C62.33 34.4707 63.1963 34.2984 64.1358 34.2984C64.9195 34.2984 65.6489 34.414 66.324 34.6454C67.0039 34.8767 67.6082 35.2048 68.137 35.6297C68.6704 36.0546 69.1119 36.5598 69.4612 37.1452C69.8106 37.7259 70.0467 38.3703 70.1694 39.0785H67.9245ZM85.4453 41.7483C85.4453 43.2969 85.162 44.6282 84.5955 45.7424C84.029 46.8519 83.2523 47.7064 82.2656 48.306C81.2836 48.9009 80.1671 49.1983 78.916 49.1983C77.6601 49.1983 76.5389 48.9009 75.5522 48.306C74.5702 47.7064 73.7959 46.8495 73.2293 45.7353C72.6628 44.6211 72.3795 43.2921 72.3795 41.7483C72.3795 40.1998 72.6628 38.8708 73.2293 37.7613C73.7959 36.6471 74.5702 35.7926 75.5522 35.1977C76.5389 34.5982 77.6601 34.2984 78.916 34.2984C80.1671 34.2984 81.2836 34.5982 82.2656 35.1977C83.2523 35.7926 84.029 36.6471 84.5955 37.7613C85.162 38.8708 85.4453 40.1998 85.4453 41.7483ZM83.2783 41.7483C83.2783 40.568 83.0871 39.5742 82.7047 38.7669C82.327 37.9549 81.8077 37.3411 81.1467 36.9257C80.4905 36.5055 79.7469 36.2954 78.916 36.2954C78.0803 36.2954 77.3344 36.5055 76.6781 36.9257C76.0219 37.3411 75.5026 37.9549 75.1202 38.7669C74.7425 39.5742 74.5536 40.568 74.5536 41.7483C74.5536 42.9286 74.7425 43.9248 75.1202 44.7368C75.5026 45.5441 76.0219 46.1579 76.6781 46.5781C77.3344 46.9935 78.0803 47.2012 78.916 47.2012C79.7469 47.2012 80.4905 46.9935 81.1467 46.5781C81.8077 46.1579 82.327 45.5441 82.7047 44.7368C83.0871 43.9248 83.2783 42.9286 83.2783 41.7483Z" fill="white"/>
<rect x="86.5159" y="47" width="2.03394" height="2.03394" fill="white"/>
</svg>
